# xmcd CD Database Entry
#
# Track frame offsets:
# 150
# 17760
# 36603
# 54787
# 72024
# 90694
# 112255
# 133430
# 148429
# 166951
# 189311
# 208356
#
# Disc length: 3053 seconds
#
# Revision: 1
# Processed by: cddbd v1.4b41PL2 Copyright (c) Steve Scherf et al.
# Submitted via: tcd 2.0b
#
DISCID=bd0beb0c
DTITLE=Freddy Jones Band/ Lucid
DYEAR=1900
DGENRE=
TTITLE0=Wonder
TTITLE1=Waiting on the Stone
TTITLE2=Better Tomorrow
TTITLE3=If I Could
TTITLE4=Blue Moon
TTITLE5=Mystic Buzz
TTITLE6=She Said
TTITLE7=Walk as One
TTITLE8=Come on Back
TTITLE9=C minor Contribution
TTITLE10=California
TTITLE11=Burning By
EXTD=
EXTT0=
EXTT1=
EXTT2=
EXTT3=
EXTT4=
EXTT5=
EXTT6=
EXTT7=
EXTT8=
EXTT9=
EXTT10=
EXTT11=
PLAYORDER=
